<svg width="88" height="23" viewBox="0 0 88 23" fill="none" xmlns="http://www.w3.org/2000/svg">
<path d="M10.944 22.08L12.064 16.448L12.96 9.792L13.856 16.448L14.976 22.08H22.016L25.92 6.272H19.648L18.944 13.024L18.432 18.592L17.536 13.056L16.096 6.272H9.75997L8.44797 13.056L7.48797 18.592L6.97597 13.024L6.27197 6.272H-3.41684e-05L3.90397 22.08H10.944ZM34.25 22.4C36.81 22.4 38.506 21.184 39.178 20.416L37.61 16.096C37.098 16.896 36.266 17.408 35.562 17.408C34.826 17.408 34.41 16.992 34.41 16.16V10.624H38.25V6.272H34.41V1.92L28.65 4.48V6.272H26.41V10.624H28.65V16.992C28.65 20.064 30.154 22.4 34.25 22.4ZM49.5065 22.08L50.6265 16.448L51.5225 9.792L52.4185 16.448L53.5385 22.08H60.5785L64.4825 6.272H58.2105L57.5065 13.024L56.9945 18.592L56.0985 13.056L54.6585 6.272H48.3225L47.0105 13.056L46.0505 18.592L45.5385 13.024L44.8345 6.272H38.5625L42.4665 22.08H49.5065ZM70.9737 22.08V14.112C70.9737 11.552 72.1897 10.304 73.5017 10.304C74.4297 10.304 74.8137 10.912 74.8137 11.808C74.8137 12.768 74.1737 13.984 73.5977 14.656H78.8777C79.3257 13.856 79.9657 12.224 79.9657 10.304C79.9657 7.68 78.9417 5.952 76.1897 5.952C72.9577 5.952 71.4537 8.896 70.9737 11.616V6.272H65.2137V22.08H70.9737ZM84.2247 6.304C85.9527 6.304 87.3607 5.024 87.3607 3.136C87.3607 1.28 85.9527 0 84.2247 0C82.4967 0 81.0887 1.28 81.0887 3.136C81.0887 5.024 82.4967 6.304 84.2247 6.304ZM84.2247 4.096C83.7127 4.096 83.3927 3.744 83.3927 3.136C83.3927 2.528 83.7127 2.208 84.2247 2.208C84.7367 2.208 85.0567 2.528 85.0567 3.136C85.0567 3.744 84.7367 4.096 84.2247 4.096Z" fill="black"/>
</svg>
